<?xml version="1.0" encoding="UTF-8" standalone="no"?>
<!-- Created with Inkscape (http://www.inkscape.org/) -->

<svg
   xmlns:dc="http://purl.org/dc/elements/1.1/"
   xmlns:cc="http://creativecommons.org/ns#"
   xmlns:rdf="http://www.w3.org/1999/02/22-rdf-syntax-ns#"
   xmlns:svg="http://www.w3.org/2000/svg"
   xmlns="http://www.w3.org/2000/svg"
   xmlns:sodipodi="http://sodipodi.sourceforge.net/DTD/sodipodi-0.dtd"
   xmlns:inkscape="http://www.inkscape.org/namespaces/inkscape"
   width="793.70081"
   height="1122.5197"
   viewBox="0 0 210 297"
   version="1.1"
   id="svg1652"
   inkscape:version="0.92.2 (5c3e80d, 2017-08-06)"
   sodipodi:docname="safari-tab.svg">
  <defs
     id="defs1646" />
  <sodipodi:namedview
     id="base"
     pagecolor="#ffffff"
     bordercolor="#666666"
     borderopacity="1.0"
     inkscape:pageopacity="0.0"
     inkscape:pageshadow="2"
     inkscape:zoom="0.73"
     inkscape:cx="-442.33094"
     inkscape:cy="626.16468"
     inkscape:document-units="px"
     inkscape:current-layer="g2227"
     showgrid="false"
     units="px"
     showborder="false"
     inkscape:window-width="1366"
     inkscape:window-height="705"
     inkscape:window-x="-8"
     inkscape:window-y="-8"
     inkscape:window-maximized="1" />
  <metadata
     id="metadata1649">
    <rdf:RDF>
      <cc:Work
         rdf:about="">
        <dc:format>image/svg+xml</dc:format>
        <dc:type
           rdf:resource="http://purl.org/dc/dcmitype/StillImage" />
        <dc:title></dc:title>
      </cc:Work>
    </rdf:RDF>
  </metadata>
  <g
     inkscape:label="Layer 1"
     inkscape:groupmode="layer"
     id="layer1">
    <g
       id="g2227">
      <path
         style="font-style:normal;font-weight:normal;font-size:533.33331299px;line-height:1.25;font-family:sans-serif;text-align:center;letter-spacing:0px;word-spacing:0px;text-anchor:middle;fill:#000000;fill-opacity:1;stroke:none;stroke-width:0.28537199"
         d="m -117.97274,91.27872 c -13.06988,0 -24.50868,3.618224 -34.31714,10.85471 -9.23117,6.8475 -15.52328,16.14753 -18.87918,27.89612 l 1.12561,-0.0163 c 3.56622,-0.0546 6.48135,-1.25625 8.74438,-3.60397 2.26863,-2.3722 3.87634,-5.62326 4.82284,-9.75255 l 1.25193,-5.46077 c 1.05288,-4.59352 3.01366,-8.11786 5.8831,-10.5724 2.89581,-2.479146 6.21055,-3.747066 9.94362,-3.804356 l 4.26204,-0.0654 c 0.12238,-0.0285 0.24658,-0.0492 0.3725,-0.0492 h 41.35111 c -3.055904,-1.35974 -6.422462,-2.54423 -10.1108,-3.54709 -4.55343,-1.25247 -9.37022,-1.878693 -14.45003,-1.878693 z m -18.4167,10.53378 -3.04111,0.0465 c -2.83633,0.0436 -5.07784,0.84505 -6.72368,2.40421 -1.62501,1.55887 -2.82931,4.04872 -3.61339,7.46941 l -1.46995,6.41368 c -0.21024,0.91729 -0.4718,1.79472 -0.7813,2.63541 2.27594,-4.29505 5.13946,-7.844 8.5917,-10.64597 6.17993,-5.0099 13.50346,-7.51483 21.96977,-7.51483 4.60359,0 9.10294,0.83498 13.49856,2.50493 4.44851,1.66997 8.557439,4.05877 12.327123,7.16675 h 0.794106 l 2.622271,-10.43568 h -43.84239 c -0.11963,0 -0.22825,-0.0185 -0.33171,-0.0445 z m -17.1552,22.16765 c -0.59931,0.99613 -1.28788,1.92324 -2.06817,2.77944 -2.13231,2.32137 -4.78095,4.17585 -7.94619,5.56356 l -0.2013,0.87933 c 2.54915,1.30001 4.36039,3.09847 5.4342,5.395 0.31744,0.66822 0.55209,1.38628 0.70885,2.15162 0.13231,-2.65642 0.59135,-5.55389 1.3807,-8.69523 0.72972,-2.904 1.62792,-5.59415 2.69191,-8.07372 z m -17.80895,11.7492 -1.17979,0.0187 c -1.01261,5.29922 -1.17948,10.0288 -0.49939,14.18785 0.8344,5.10266 2.76348,9.32414 5.78699,12.66403 2.9706,3.3399 6.91787,5.84487 11.84263,7.51481 4.93638,1.62356 10.60585,2.43553 17.00852,2.43551 5.02688,0 9.90875,-0.58021 14.64495,-1.73988 2.88178,-0.69783 5.89466,-1.56674 9.0333,-2.60042 h -36.69357 c -0.13746,0 -0.26193,-0.0234 -0.37788,-0.0574 l -3.97459,0.061 c -3.73309,0.0572 -6.48746,-1.11771 -8.26318,-3.52518 -1.76046,-2.38342 -2.11397,-5.8719 -1.06105,-10.4654 l 1.25133,-5.46075 c 0.9465,-4.12929 0.82006,-7.34157 -0.37886,-9.63618 -1.19333,-2.31903 -3.57315,-3.45152 -7.13939,-3.39681 z m 13.83539,9.38253 c -0.0814,0.64002 -0.19939,1.30186 -0.35661,1.98779 l -1.47008,6.4142 c -0.78389,3.42071 -0.71637,5.89063 0.20296,7.41042 0.94019,1.5195 2.82865,2.25775 5.66496,2.21425 l 3.04481,-0.047 c 0.10438,-0.0207 0.21046,-0.0345 0.31702,-0.0345 h 42.52146 l 2.8949,-11.52063 h -0.7941 c -1.30938,0.7886 -3.05644,1.73972 -5.24112,2.85301 -2.17301,1.06692 -4.46616,2.08707 -6.88044,3.06123 -2.76673,1.11329 -5.7989,2.01787 -9.09571,2.7137 -3.2968,0.69584 -6.45285,1.0437 -9.46899,1.0437 -8.67798,0 -14.79514,-2.50493 -18.35148,-7.51481 -1.64483,-2.38176 -2.63997,-5.24247 -2.98754,-8.58149 z"
         id="path1644"
         inkscape:connector-curvature="0"
         inkscape:export-filename="E:\plante\bootstrapcrew\assets\img\180x180.png"
         inkscape:export-xdpi="56.255859"
         inkscape:export-ydpi="56.255859" />
    </g>
  </g>
</svg>
